# xmcd
#
# Track frame offsets:
# 150
# 3194
# 16335
# 45214
# 61860
# 78744
# 90557
# 102464
# 118064
# 134657
# 150155
# 163048
# 173067
# 186215
# 197523
# 211888
# 225974
# 241796
# 255227
# 268547
# 279251
# 291778
# 309181
# 321393
# 339086
#
# Disc length: 4687 seconds
#
#
# Revision: 0
# Processed by: cddbd v1.5.1PL0 Copyright (c) Steve Scherf et al.
# Submitted via: FreeRIP 2.90 
#
DISCID=39124d19
DTITLE=Cajú Com Mel - Ao Vivo em Ubatã
DYEAR=2004
DGENRE=
TTITLE0=Abertura
TTITLE1=Aconteceu Comigo
TTITLE2=Mulher Roleira
TTITLE3=Somos Loucos
TTITLE4=Mauricinho
TTITLE5=Estória da Corrinha
TTITLE6=Patricinha
TTITLE7=Matutinha
TTITLE8=A Dance do Arrocha
TTITLE9=Tapinha na Bundinha
TTITLE10=Carência
TTITLE11=Como Eu Queria
TTITLE12=É Mentira Dela
TTITLE13=Aqui Pra Ela
TTITLE14=Ele Vai Ter Que Me Pagar
TTITLE15=O Gato Comeu
TTITLE16=Tõ Te Esperando Amor
TTITLE17=Só Quero É Namorar Com Ela
TTITLE18=Solte O Pilão
TTITLE19=Casamento de Navara
TTITLE20=Ciganinha
TTITLE21=O Grito da Galera
TTITLE22=Mulher Chorona
TTITLE23=Moda Vaqueira
TTITLE24=É na Sola da Bota
EXTD=
EXTT0=
EXTT1=
EXTT2=
EXTT3=
EXTT4=
EXTT5=
EXTT6=
EXTT7=
EXTT8=
EXTT9=
EXTT10=
EXTT11=
EXTT12=
EXTT13=
EXTT14=
EXTT15=
EXTT16=
EXTT17=
EXTT18=
EXTT19=
EXTT20=
EXTT21=
EXTT22=
EXTT23=
EXTT24=
PLAYORDER=
